<svg width="32" height="32" viewBox="0 0 32 32" fill="none" xmlns="http://www.w3.org/2000/svg">
<path fill-rule="evenodd" clip-rule="evenodd" d="M6.81693 15.9988C6.81693 15.237 7.43447 14.6195 8.19624 14.6195L20.471 14.6196L15.0235 9.17156C14.4848 8.6329 14.4848 7.75957 15.0235 7.22092C15.5621 6.68226 16.4355 6.68226 16.9741 7.22092L24.7767 15.0235C24.8092 15.056 24.84 15.0901 24.8692 15.1256L24.7767 15.0235L24.8519 15.1049L24.9516 15.2373L25.0234 15.3586L25.0692 15.4547L25.1249 15.6092L25.1581 15.7492L25.1766 15.8918L25.1807 15.9988L25.1779 16.0862L25.1645 16.2098L25.1461 16.307L25.1103 16.4348L25.0692 16.5429L25.0074 16.6686L24.9192 16.807L24.8688 16.8724L24.7767 16.9741L16.9741 24.7767C16.4355 25.3153 15.5621 25.3153 15.0235 24.7767C14.4848 24.238 14.4848 23.3647 15.0235 22.826L20.471 17.3782L8.19624 17.3781C7.43447 17.3781 6.81693 16.7606 6.81693 15.9988Z" fill="white"/>
</svg>
