<svg xmlns="http://www.w3.org/2000/svg" xmlns:xlink="http://www.w3.org/1999/xlink" viewBox="0 0 180 53.33"><defs><style>.cls-1{fill:none;}.cls-2{fill:#a6a6a6;}.cls-3{fill:#fff;}.cls-4{clip-path:url(#clip-path);}.cls-5{fill:url(#linear-gradient);}.cls-6{clip-path:url(#clip-path-2);}.cls-7{fill:url(#linear-gradient-2);}.cls-8{clip-path:url(#clip-path-3);}.cls-9{fill:url(#linear-gradient-3);}.cls-10{clip-path:url(#clip-path-4);}.cls-11{fill:url(#linear-gradient-4);}.cls-12{clip-path:url(#clip-path-5);}.cls-13{fill:url(#linear-gradient-5);}.cls-14{clip-path:url(#clip-path-6);}.cls-15{fill:url(#linear-gradient-6);}.cls-16{clip-path:url(#clip-path-7);}.cls-17{fill:url(#linear-gradient-7);}.cls-18{clip-path:url(#clip-path-8);}.cls-19{fill:url(#linear-gradient-8);}.cls-20{clip-path:url(#clip-path-9);}.cls-21{fill:url(#linear-gradient-9);}.cls-22{fill:#404040;}.cls-23{clip-path:url(#clip-path-10);}.cls-24{fill:url(#linear-gradient-10);}.cls-25{clip-path:url(#clip-path-11);}.cls-26{fill:url(#linear-gradient-11);}.cls-27{clip-path:url(#clip-path-12);}.cls-28{fill:url(#linear-gradient-12);}</style><clipPath id="clip-path"><path class="cls-1" d="M14,43.19l-.1-.1a2.71,2.71,0,0,1-.61-1.87v.19h0V11.92h0v.2a2.56,2.56,0,0,1,.71-2L30.53,26.67,14,43.19M13.3,11.92v0m0-.22h0m0,0h0"/></clipPath><linearGradient id="linear-gradient" x1="-331.67" y1="312.12" x2="-330.67" y2="312.12" gradientTransform="translate(-408.57 14417.5) rotate(135) scale(31.65)" gradientUnits="userSpaceOnUse"><stop offset="0" stop-color="#00a0ff"/><stop offset="0.01" stop-color="#00a1ff"/><stop offset="0.26" stop-color="#00beff"/><stop offset="0.51" stop-color="#00d2ff"/><stop offset="0.76" stop-color="#00dfff"/><stop offset="1" stop-color="#00e3ff"/></linearGradient><clipPath id="clip-path-2"><path class="cls-1" d="M36,32.37h0l.12-.07,6.53-3.71a2.87,2.87,0,0,0,1.24-1.23,2.87,2.87,0,0,1-1.24,1.23L36.16,32.3l-.12.07m0-.19-5.51-5.51L36,21.16l6.65,3.78a2.49,2.49,0,0,1,1.39,1.73h0a2.49,2.49,0,0,1-1.39,1.73L36,32.18"/></clipPath><linearGradient id="linear-gradient-2" x1="-340.16" y1="316.97" x2="-339.16" y2="316.97" gradientTransform="translate(-10929.32 10253.17) rotate(180) scale(32.26)" gradientUnits="userSpaceOnUse"><stop offset="0" stop-color="#ffe000"/><stop offset="0.41" stop-color="#ffbd00"/><stop offset="0.78" stop-color="orange"/><stop offset="1" stop-color="#ff9c00"/></linearGradient><clipPath id="clip-path-3"><path class="cls-1" d="M15.19,43.82A1.71,1.71,0,0,1,14,43.38h0a1.76,1.76,0,0,0,1.18.44h0m0-.2A1.75,1.75,0,0,1,14,43.19h0L30.53,26.67,36,32.18h0l-19.36,11a3,3,0,0,1-1.49.45M14,43.38l-.09-.09.09.09"/></clipPath><linearGradient id="linear-gradient-3" x1="-331.32" y1="315.49" x2="-330.32" y2="315.49" gradientTransform="translate(-447.49 19656.67) rotate(135) scale(42.91)" gradientUnits="userSpaceOnUse"><stop offset="0" stop-color="#ff3a44"/><stop offset="1" stop-color="#c31162"/></linearGradient><clipPath id="clip-path-4"><path class="cls-1" d="M30.53,26.67h0L14,10.15a1.75,1.75,0,0,1,1.18-.43,3.07,3.07,0,0,1,1.49.44L36,21.16l-5.51,5.51M36.16,21,16.68,10a3.09,3.09,0,0,0-1.49-.45h0a3,3,0,0,1,1.49.45L36.16,21"/></clipPath><linearGradient id="linear-gradient-4" x1="-309.15" y1="322.73" x2="-308.15" y2="322.73" gradientTransform="translate(8571.71 -183.72) rotate(45) scale(19.16)" gradientUnits="userSpaceOnUse"><stop offset="0" stop-color="#32a071"/><stop offset="0.07" stop-color="#2da771"/><stop offset="0.48" stop-color="#15cf74"/><stop offset="0.8" stop-color="#06e775"/><stop offset="1" stop-color="#00f076"/></linearGradient><clipPath id="clip-path-5"><polyline class="cls-1" points="36.04 32.37 36.04 32.37 36.16 32.3 36.04 32.37"/></clipPath><linearGradient id="linear-gradient-5" x1="-340.16" y1="316.8" x2="-339.16" y2="316.8" gradientTransform="translate(-10929.32 10253.17) rotate(180) scale(32.26)" gradientUnits="userSpaceOnUse"><stop offset="0" stop-color="#ccb300"/><stop offset="0.41" stop-color="#cc9700"/><stop offset="0.78" stop-color="#cc8400"/><stop offset="1" stop-color="#cc7d00"/></linearGradient><clipPath id="clip-path-6"><path class="cls-1" d="M15.19,43.82A1.76,1.76,0,0,1,14,43.38h0l-.09-.09h0l.1-.1a1.75,1.75,0,0,0,1.18.43,3,3,0,0,0,1.49-.45L36,32.18l.12.12-.12.07-19.36,11a3.17,3.17,0,0,1-1.37.44h-.12"/></clipPath><linearGradient id="linear-gradient-6" x1="-331.32" y1="315.48" x2="-330.32" y2="315.48" gradientTransform="translate(-447.49 19656.67) rotate(135) scale(42.91)" gradientUnits="userSpaceOnUse"><stop offset="0" stop-color="#cc2e36"/><stop offset="1" stop-color="#9c0e4e"/></linearGradient><clipPath id="clip-path-7"><path class="cls-1" d="M13.91,43.29h0a2.73,2.73,0,0,1-.61-1.88v-.19a2.71,2.71,0,0,0,.61,1.87l.1.1-.1.1"/></clipPath><linearGradient id="linear-gradient-7" x1="-331.67" y1="311.78" x2="-330.67" y2="311.78" gradientTransform="translate(-408.57 14417.5) rotate(135) scale(31.65)" gradientUnits="userSpaceOnUse"><stop offset="0" stop-color="#008de0"/><stop offset="0.01" stop-color="#008de0"/><stop offset="0.26" stop-color="#00a7e0"/><stop offset="0.51" stop-color="#00b8e0"/><stop offset="0.76" stop-color="#00c4e0"/><stop offset="1" stop-color="#00c7e0"/></linearGradient><clipPath id="clip-path-8"><polyline class="cls-1" points="13.91 43.28 13.91 43.28 13.91 43.28 14.01 43.19 14.01 43.19 13.91 43.28"/></clipPath><linearGradient id="linear-gradient-8" x1="-331.32" y1="315.58" x2="-330.32" y2="315.58" gradientTransform="translate(-447.49 19656.67) rotate(135) scale(42.91)" gradientUnits="userSpaceOnUse"><stop offset="0" stop-color="#e0333c"/><stop offset="1" stop-color="#ab0f56"/></linearGradient><clipPath id="clip-path-9"><path class="cls-1" d="M36.16,32.3h0L36,32.18l6.65-3.78a2.49,2.49,0,0,0,1.39-1.73,1.72,1.72,0,0,1-.15.69,2.87,2.87,0,0,1-1.24,1.23L36.16,32.3"/></clipPath><linearGradient id="linear-gradient-9" x1="-340.16" y1="316.89" x2="-339.16" y2="316.89" gradientTransform="translate(-10929.32 10253.17) rotate(180) scale(32.26)" gradientUnits="userSpaceOnUse"><stop offset="0" stop-color="#e0c500"/><stop offset="0.41" stop-color="#e0a600"/><stop offset="0.78" stop-color="#e09100"/><stop offset="1" stop-color="#e08900"/></linearGradient><clipPath id="clip-path-10"><path class="cls-1" d="M44.08,26.67a2.49,2.49,0,0,0-1.39-1.73L36,21.16l.12-.12h0l6.53,3.7a2.34,2.34,0,0,1,1.39,1.93"/></clipPath><linearGradient id="linear-gradient-10" x1="-340.16" y1="317.06" x2="-339.16" y2="317.06" gradientTransform="translate(-10929.32 10253.17) rotate(180) scale(32.26)" gradientUnits="userSpaceOnUse"><stop offset="0" stop-color="#ffe840"/><stop offset="0.41" stop-color="#ffce40"/><stop offset="0.78" stop-color="#ffbc40"/><stop offset="1" stop-color="#ffb540"/></linearGradient><clipPath id="clip-path-11"><path class="cls-1" d="M13.3,12.12v-.2h0V11.7h0a2.55,2.55,0,0,1,.61-1.64h0l.1.1a2.56,2.56,0,0,0-.71,2M14,10h0"/></clipPath><linearGradient id="linear-gradient-11" x1="-331.67" y1="312.47" x2="-330.67" y2="312.47" gradientTransform="translate(-408.57 14417.5) rotate(135) scale(31.65)" gradientUnits="userSpaceOnUse"><stop offset="0" stop-color="#40b8ff"/><stop offset="0.01" stop-color="#40b9ff"/><stop offset="0.26" stop-color="#40ceff"/><stop offset="0.51" stop-color="#40ddff"/><stop offset="0.76" stop-color="#40e7ff"/><stop offset="1" stop-color="#40eaff"/></linearGradient><clipPath id="clip-path-12"><path class="cls-1" d="M36,21.16l-19.36-11a3.07,3.07,0,0,0-1.49-.44,1.75,1.75,0,0,0-1.18.43l-.1-.1h0L14,10h0a1.7,1.7,0,0,1,1.17-.43h0a3.09,3.09,0,0,1,1.49.45L36.16,21h0l-.12.12"/></clipPath><linearGradient id="linear-gradient-12" x1="-309.15" y1="322.73" x2="-308.15" y2="322.73" gradientTransform="translate(8571.71 -183.72) rotate(45) scale(19.16)" gradientUnits="userSpaceOnUse"><stop offset="0" stop-color="#65b895"/><stop offset="0.07" stop-color="#62bd95"/><stop offset="0.48" stop-color="#50db97"/><stop offset="0.8" stop-color="#44ed98"/><stop offset="1" stop-color="#40f498"/></linearGradient></defs><g id="Layer_2" data-name="Layer 2"><g id="svg2"><g id="g10"><g id="g12"><path id="path16" d="M173.33,53.33H6.67A6.69,6.69,0,0,1,0,46.67v-40A6.69,6.69,0,0,1,6.67,0H173.33A6.69,6.69,0,0,1,180,6.67v40a6.69,6.69,0,0,1-6.67,6.66"/><path id="path18" class="cls-2" d="M173.33,0H6.67A6.69,6.69,0,0,0,0,6.67v40a6.69,6.69,0,0,0,6.67,6.66H173.33A6.69,6.69,0,0,0,180,46.67v-40A6.69,6.69,0,0,0,173.33,0m0,1.07a5.6,5.6,0,0,1,5.6,5.6v40a5.61,5.61,0,0,1-5.6,5.6H6.67a5.61,5.61,0,0,1-5.6-5.6v-40a5.6,5.6,0,0,1,5.6-5.6H173.33"/><path id="path20" class="cls-3" d="M63.22,13.66a3.64,3.64,0,0,1-1,2.67,3.86,3.86,0,0,1-2.94,1.18,4.12,4.12,0,0,1-4.15-4.18,4.13,4.13,0,0,1,4.15-4.18,4.15,4.15,0,0,1,1.64.34,3.3,3.3,0,0,1,1.26.89l-.71.71a2.68,2.68,0,0,0-2.19-.95,3,3,0,0,0-2.18.89,3,3,0,0,0-.92,2.3,3.15,3.15,0,0,0,5.34,2.31A2.56,2.56,0,0,0,62.2,14H59.29v-1h3.88a3.2,3.2,0,0,1,0,.61"/><path id="path22" class="cls-3" d="M63.22,13.66h-.13a3.47,3.47,0,0,1-1,2.57h0a3.72,3.72,0,0,1-2.84,1.14,4,4,0,0,1-4-4,4,4,0,0,1,4-4,4.07,4.07,0,0,1,1.59.32,3.14,3.14,0,0,1,1.2.86l.11-.09-.1-.09-.7.7.09.1.1-.09a2.85,2.85,0,0,0-2.29-1,3.25,3.25,0,0,0-3.24,3.33,3.28,3.28,0,0,0,5.57,2.4h0a2.65,2.65,0,0,0,.71-1.7v-.15H59.43v-.69h3.74v-.14l-.13,0a3.9,3.9,0,0,1,.05.58h.27A3.52,3.52,0,0,0,63.3,13l0-.11H59.16v1.23h3V14l-.14,0a2.35,2.35,0,0,1-.63,1.54h0a3,3,0,0,1-4.23,0,2.89,2.89,0,0,1-.88-2.21,2.92,2.92,0,0,1,.88-2.21,2.89,2.89,0,0,1,2.09-.85,2.58,2.58,0,0,1,2.09.9l.09.11.81-.8.09-.09-.08-.09A3.5,3.5,0,0,0,61,9.37,4.31,4.31,0,0,0,59.29,9,4.25,4.25,0,0,0,55,13.33a4.25,4.25,0,0,0,4.29,4.32,4,4,0,0,0,3-1.23l-.1-.09.1.09a3.74,3.74,0,0,0,1-2.76h-.14"/><path id="path24" class="cls-3" d="M69.37,10.32H65.73v2.53H69v1H65.73v2.54h3.64v1H64.7v-8h4.67v1"/><path id="path26" class="cls-3" d="M69.37,10.32v-.14H65.59V13h3.29v.69H65.59v2.8h3.65v.72H64.83V9.47h4.41v.85h.13v0h.13V9.2H64.57v8.27H69.5V16.22H65.86V14h3.29V12.72H65.86V10.45H69.5v-.13h-.13"/><path id="path28" class="cls-3" d="M73.71,17.33h-1v-7H70.44v-1h5.5v1H73.71v7"/><path id="path30" class="cls-3" d="M73.71,17.33V17.2h-.9v-7H70.58V9.47h5.23v.71H73.57v7.15h.14v0h.13V10.45h2.23V9.2H70.31v1.25h2.23v7h1.3v-.14h-.13"/><path id="path32" class="cls-3" d="M79.92,17.33v-8h1v8h-1"/><path id="path34" class="cls-3" d="M79.92,17.33h.13V9.47h.76V17.2h-.89v.13h0v.14h1.16V9.2h-1.3v8.27h.14v-.14"/><path id="path36" class="cls-3" d="M85.5,17.33h-1v-7H82.24v-1h5.5v1H85.5v7"/><path id="path38" class="cls-3" d="M85.5,17.33V17.2h-.89v-7H82.38V9.47h5.23v.71H85.37v7.15h.13v0h.14V10.45h2.23V9.2H82.11v1.25h2.23v7h1.3v-.14H85.5"/><path id="path40" class="cls-3" d="M93,15.63a3.08,3.08,0,0,0,4.35,0,3.15,3.15,0,0,0,.89-2.3A3.13,3.13,0,0,0,97.39,11,3.08,3.08,0,0,0,93,11a3.13,3.13,0,0,0-.89,2.29A3.15,3.15,0,0,0,93,15.63Zm5.11.67a4.16,4.16,0,0,1-5.87,0,4.09,4.09,0,0,1-1.18-3,4,4,0,0,1,1.18-3,4.13,4.13,0,0,1,5.86,0,4.08,4.08,0,0,1,1.18,3,4.12,4.12,0,0,1-1.17,3"/><path id="path42" class="cls-3" d="M93,15.63l-.1.09a3.21,3.21,0,0,0,4.54,0,3.26,3.26,0,0,0,.93-2.39,3.27,3.27,0,0,0-.93-2.39h0a3.21,3.21,0,0,0-4.54,0h0A3.31,3.31,0,0,0,92,13.33a3.29,3.29,0,0,0,.92,2.39l.1-.09.09-.09a3.07,3.07,0,0,1-.85-2.21,3.07,3.07,0,0,1,.85-2.2h0a2.95,2.95,0,0,1,4.16,0h0a3,3,0,0,1,.85,2.2,3,3,0,0,1-.85,2.21,2.95,2.95,0,0,1-4.16,0Zm5.11.67-.1-.09a4,4,0,0,1-5.67,0h0a4,4,0,0,1-1.15-2.88,4,4,0,0,1,1.15-2.87h0a4,4,0,0,1,5.67,0,4,4,0,0,1,1.14,2.86,4,4,0,0,1-1.14,2.88l.1.09.09.09a4.23,4.23,0,0,0,1.22-3.06,4.23,4.23,0,0,0-1.22-3.05,4.29,4.29,0,0,0-6.06,0h0A4.22,4.22,0,0,0,91,13.33a4.22,4.22,0,0,0,1.21,3.06h0a4.27,4.27,0,0,0,6.06,0l-.09-.09"/><path id="path44" class="cls-3" d="M100.77,17.33v-8H102l3.89,6.23h0l0-1.54V9.33h1v8h-1.07l-4.07-6.52h0l0,1.54v5h-1"/><path id="path46" class="cls-3" d="M100.77,17.33h.13V9.47h1l3.89,6.22h.26L106,14V9.47h.76V17.2h-.86l-4.07-6.53h-.26l0,1.68V17.2h-.89v.13h0v.14h1.16V12.35l-.05-1.55h-.13v.13h0v-.13l-.11.07,4.11,6.59h1.28V9.2h-1.3V14l0,1.54H106v-.14h0v.14l.11-.07L102.09,9.2h-1.46v8.27h.14v-.14"/><path id="path48" class="cls-3" d="M142.58,40h2.49V23.33h-2.49ZM165,29.34l-2.85,7.22h-.09l-3-7.22h-2.68l4.44,10.1-2.53,5.61h2.6l6.84-15.71Zm-14.11,8.77c-.81,0-1.95-.41-1.95-1.42,0-1.29,1.42-1.78,2.64-1.78a4.46,4.46,0,0,1,2.27.56,3,3,0,0,1-3,2.64Zm.3-9.14a4.68,4.68,0,0,0-4.44,2.55l2.21.93a2.35,2.35,0,0,1,2.27-1.23,2.4,2.4,0,0,1,2.62,2.15v.17a5.45,5.45,0,0,0-2.59-.64c-2.38,0-4.81,1.3-4.81,3.75,0,2.23,1.95,3.67,4.14,3.67a3.51,3.51,0,0,0,3.17-1.63h.09V40h2.4V33.58c0-3-2.21-4.61-5.06-4.61Zm-15.37,2.4h-3.54V25.65h3.54a2.86,2.86,0,1,1,0,5.72Zm-.07-8h-6V40h2.49V33.68h3.47a5.18,5.18,0,1,0,0-10.35ZM103.23,38.11a3.25,3.25,0,0,1-3.15-3.42,3.27,3.27,0,0,1,3.15-3.45,3.19,3.19,0,0,1,3,3.45A3.17,3.17,0,0,1,103.23,38.11Zm2.86-7.84H106A3.89,3.89,0,0,0,103,29a5.67,5.67,0,0,0,0,11.34,3.86,3.86,0,0,0,3-1.28h.09v.81c0,2.17-1.16,3.33-3,3.33a3.14,3.14,0,0,1-2.86-2l-2.17.9a5.41,5.41,0,0,0,5,3.35c2.92,0,5.39-1.71,5.39-5.9V29.35h-2.36ZM110.17,40h2.49V23.33h-2.49Zm6.17-5.5a3.1,3.1,0,0,1,3-3.31,2.21,2.21,0,0,1,2.11,1.21Zm7.73-1.89A5.26,5.26,0,0,0,119.21,29a5.38,5.38,0,0,0-5.34,5.67,5.54,5.54,0,0,0,5.62,5.67,5.65,5.65,0,0,0,4.73-2.51l-1.93-1.29a3.25,3.25,0,0,1-2.8,1.57,2.89,2.89,0,0,1-2.75-1.72l7.59-3.13ZM63.66,30.74v2.41h5.76a5.08,5.08,0,0,1-1.32,3,5.89,5.89,0,0,1-4.44,1.76,6.4,6.4,0,0,1,0-12.8A6.16,6.16,0,0,1,68,26.85l1.69-1.69a8.35,8.35,0,0,0-6-2.43,8.81,8.81,0,1,0,0,17.61,8,8,0,0,0,6.14-2.47,7.94,7.94,0,0,0,2.09-5.62,8.41,8.41,0,0,0-.13-1.51Zm14.77,7.37a3.44,3.44,0,1,1,3.2-3.44A3.28,3.28,0,0,1,78.43,38.11Zm0-9.11a5.67,5.67,0,1,0,5.69,5.67A5.59,5.59,0,0,0,78.43,29Zm12.42,9.11a3.44,3.44,0,1,1,3.2-3.44A3.28,3.28,0,0,1,90.85,38.11Zm0-9.11a5.67,5.67,0,1,0,5.69,5.67A5.59,5.59,0,0,0,90.85,29"/><g id="g50"><g class="cls-4"><g id="g52"><path id="path72" class="cls-5" d="M14,43.19l-.1-.1a2.71,2.71,0,0,1-.61-1.87v.19h0V11.92h0v.2a2.56,2.56,0,0,1,.71-2L30.53,26.67,14,43.19M13.3,11.92v0m0-.22h0m0,0h0"/></g></g></g><g id="g74"><g class="cls-6"><g id="g76"><path id="path92" class="cls-7" d="M36,32.37h0l.12-.07,6.53-3.71a2.87,2.87,0,0,0,1.24-1.23,2.87,2.87,0,0,1-1.24,1.23L36.16,32.3l-.12.07m0-.19-5.51-5.51L36,21.16l6.65,3.78a2.49,2.49,0,0,1,1.39,1.73h0a2.49,2.49,0,0,1-1.39,1.73L36,32.18"/></g></g></g><g id="g94"><g class="cls-8"><g id="g96"><path id="path108" class="cls-9" d="M15.19,43.82A1.71,1.71,0,0,1,14,43.38h0a1.76,1.76,0,0,0,1.18.44h0m0-.2A1.75,1.75,0,0,1,14,43.19h0L30.53,26.67,36,32.18h0l-19.36,11a3,3,0,0,1-1.49.45M14,43.38l-.09-.09.09.09"/></g></g></g><g id="g110"><g class="cls-10"><g id="g112"><path id="path130" class="cls-11" d="M30.53,26.67h0L14,10.15a1.75,1.75,0,0,1,1.18-.43,3.07,3.07,0,0,1,1.49.44L36,21.16l-5.51,5.51M36.16,21,16.68,10a3.09,3.09,0,0,0-1.49-.45h0a3,3,0,0,1,1.49.45L36.16,21"/></g></g></g><path id="path132" d="M15.31,43.81a3.17,3.17,0,0,0,1.37-.44L36,32.37h0l-19.36,11a3.17,3.17,0,0,1-1.37.44M14,43.38h0m-.09-.09h0"/><g id="g134"><g class="cls-12"><g id="g136"><path id="path152" class="cls-13" d="M36,32.37h0l.12-.07-.12.07"/></g></g></g><g id="g154"><g class="cls-14"><g id="g156"><path id="path168" class="cls-15" d="M15.19,43.82A1.76,1.76,0,0,1,14,43.38h0l-.09-.09h0l.1-.1a1.75,1.75,0,0,0,1.18.43,3,3,0,0,0,1.49-.45L36,32.18l.12.12-.12.07-19.36,11a3.17,3.17,0,0,1-1.37.44h-.12"/></g></g></g><path id="path170" d="M13.91,43.29a2.72,2.72,0,0,1-.61-1.88h0a2.73,2.73,0,0,0,.61,1.88h0"/><g id="g172"><g class="cls-16"><g id="g174"><path id="path194" class="cls-17" d="M13.91,43.29h0a2.73,2.73,0,0,1-.61-1.88v-.19a2.71,2.71,0,0,0,.61,1.87l.1.1-.1.1"/></g></g></g><g id="g196"><g class="cls-18"><g id="g198"><path id="path210" class="cls-19" d="M13.91,43.29h0l.1-.1h0l-.1.1"/></g></g></g><path id="path212" d="M43.93,27.36a1.72,1.72,0,0,0,.15-.69h0a1.72,1.72,0,0,1-.15.69"/><g id="g214"><g class="cls-20"><g id="g216"><path id="path232" class="cls-21" d="M36.16,32.3h0L36,32.18l6.65-3.78a2.49,2.49,0,0,0,1.39-1.73,1.72,1.72,0,0,1-.15.69,2.87,2.87,0,0,1-1.24,1.23L36.16,32.3"/></g></g></g><path id="path234" class="cls-22" d="M44.08,26.67h0a2.34,2.34,0,0,0-1.39-1.93L36.16,21h0l6.53,3.7a2.34,2.34,0,0,1,1.39,1.93"/><g id="g236"><g class="cls-23"><g id="g238"><path id="path254" class="cls-24" d="M44.08,26.67a2.49,2.49,0,0,0-1.39-1.73L36,21.16l.12-.12h0l6.53,3.7a2.34,2.34,0,0,1,1.39,1.93"/></g></g></g><path id="path256" class="cls-22" d="M13.3,11.92h0m0-.22h0m0,0h0m0,0c.08-1.37.83-2.16,1.88-2.17A1.7,1.7,0,0,0,14,10h0l-.1.09h0a2.55,2.55,0,0,0-.61,1.64"/><g id="g258"><g class="cls-25"><g id="g260"><path id="path280" class="cls-26" d="M13.3,12.12v-.2h0V11.7h0a2.55,2.55,0,0,1,.61-1.64h0l.1.1a2.56,2.56,0,0,0-.71,2M14,10h0"/></g></g></g><path id="path282" class="cls-22" d="M15.18,9.52h0"/><g id="g284"><g class="cls-27"><g id="g286"><path id="path304" class="cls-28" d="M36,21.16l-19.36-11a3.07,3.07,0,0,0-1.49-.44,1.75,1.75,0,0,0-1.18.43l-.1-.1h0L14,10h0a1.7,1.7,0,0,1,1.17-.43h0a3.09,3.09,0,0,1,1.49.45L36.16,21h0l-.12.12"/></g></g></g></g></g></g></g></svg>