<svg width="32" height="32" viewBox="0 0 32 32" fill="none" xmlns="http://www.w3.org/2000/svg">
<path fill-rule="evenodd" clip-rule="evenodd" d="M24.5977 13.6552H24.2742C23.4636 10.7789 21.222 8.53642 18.3449 7.72589V7.40231C18.3449 6.97086 17.9955 6.6207 17.5633 6.6207H14.4368C14.0046 6.6207 13.6552 6.97086 13.6552 7.40231V7.72589C10.7781 8.53642 8.53645 10.7789 7.72592 13.6552H7.40234C6.97011 13.6552 6.62073 14.0053 6.62073 14.4368V17.5632C6.62073 17.9947 6.97011 18.3448 7.40234 18.3448H7.72592C8.53645 21.2212 10.7781 23.4636 13.6552 24.2741V24.5977C13.6552 25.0292 14.0046 25.3793 14.4368 25.3793H17.5633C17.9955 25.3793 18.3449 25.0292 18.3449 24.5977V24.2741C21.222 23.4636 23.4636 21.2212 24.2742 18.3448H24.5977C25.03 18.3448 25.3793 17.9947 25.3793 17.5632V14.4368C25.3793 14.0053 25.03 13.6552 24.5977 13.6552ZM16 19.1264C14.2758 19.1264 12.8736 17.7242 12.8736 16C12.8736 14.2758 14.2758 12.8736 16 12.8736C17.7243 12.8736 19.1265 14.2758 19.1265 16C19.1265 17.7242 17.7243 19.1264 16 19.1264ZM22.6296 13.6552H20.055C19.6439 12.9463 19.0538 12.3561 18.3449 11.945V9.3704C20.3513 10.0754 21.9246 11.6488 22.6296 13.6552ZM13.6552 9.3704V11.945C12.9463 12.3561 12.3562 12.9463 11.945 13.6552H9.37043C10.0754 11.6488 11.6488 10.0754 13.6552 9.3704ZM9.37043 18.3448H11.945C12.3562 19.0538 12.9463 19.6439 13.6552 20.055V22.6296C11.6488 21.9246 10.0754 20.3512 9.37043 18.3448ZM18.3449 22.6296V20.055C19.0538 19.6439 19.6439 19.053 20.055 18.3448H22.6296C21.9246 20.3512 20.3513 21.9246 18.3449 22.6296Z" fill="white"/>
</svg>
