<?xml version="1.0" encoding="utf-8"?>
<!-- Generator: Adobe Illustrator 24.0.0, SVG Export Plug-In . SVG Version: 6.00 Build 0)  -->
<svg version="1.1" id="Layer_1" xmlns="http://www.w3.org/2000/svg" xmlns:xlink="http://www.w3.org/1999/xlink" x="0px" y="0px"
	 viewBox="0 0 602.44 344.25" style="enable-background:new 0 0 602.44 344.25;" xml:space="preserve">
<style type="text/css">
	.st0{fill-rule:evenodd;clip-rule:evenodd;fill:#FFFFFF;}
</style>
<g transform="matrix(1,0,0,1,-356,0)">
	<g id="Logo_White" transform="matrix(1,0,0,1,356,0)">
		<g transform="matrix(1,0,0,1,-541,-60)">
			<g transform="matrix(1,0,0,1,307,0)">
				<path class="st0" d="M506.53,186.7h19.12v50.2c0,23.75-19.28,43.03-43.03,43.03s-43.03-19.28-43.03-43.03v-50.2h19.12v50.2
					c0,14.51,10.71,26.3,23.91,26.3s23.91-11.78,23.91-26.3V186.7z"/>
			</g>
			<g transform="matrix(1,0,0,-1,351,272)">
				<path class="st0" d="M567.72-5.55h19.12v50.2c0,23.75-19.28,43.03-43.03,43.03s-43.03-19.28-43.03-43.03v-50.2h19.12v50.2
					c0,14.51,10.71,26.3,23.91,26.3s23.91-11.78,23.91-26.3V-5.55z"/>
			</g>
			<g transform="matrix(1,0,0,1,-1342,-98)">
				<path class="st0" d="M1992.97,375.55h-16.73v-43.03h0.07c-0.05-0.79-0.07-1.59-0.07-2.39v-86.06h19.12v47.82
					c7.98-6.01,17.93-9.57,28.69-9.57c26.39,0,47.81,21.42,47.81,47.81s-21.42,47.81-47.81,47.81c-11.43,0-21.92-4.02-30.15-10.72
					L1992.97,375.55z M2022.85,299.05c16.5,0,29.88,13.93,29.88,31.08s-13.39,31.08-29.88,31.08s-29.88-13.93-29.88-31.08
					S2006.36,299.05,2022.85,299.05z"/>
			</g>
			<g transform="matrix(-1,0,0,-1,2680,370)">
				<path class="st0" d="M1646.53,183.3h-16.73v-43.03h0.07c-0.05-0.79-0.07-1.59-0.07-2.39V51.81h19.12v47.82
					c7.98-6.01,17.93-9.57,28.69-9.57c26.39,0,47.81,21.42,47.81,47.81s-21.42,47.81-47.81,47.81c-11.43,0-21.92-4.02-30.15-10.72
					L1646.53,183.3z M1676.41,106.8c16.5,0,29.88,13.93,29.88,31.08s-13.39,31.08-29.88,31.08s-29.88-13.93-29.88-31.08
					S1659.92,106.8,1676.41,106.8z"/>
			</g>
		</g>
	</g>
</g>
</svg>
