<svg xmlns="http://www.w3.org/2000/svg" viewBox="0 0 517.1 130.7"><defs><style>.cls-1{fill:#fff;}</style></defs><g id="Layer_2" data-name="Layer 2"><g id="Layer_1-2" data-name="Layer 1"><path class="cls-1" d="M132.3,79a6.71,6.71,0,0,0-5.8,3.2,6.56,6.56,0,1,0,5.8-3.2Z"/><path class="cls-1" d="M124,96a5.55,5.55,0,1,0,5.6,5.5A5.57,5.57,0,0,0,124,96Z"/><circle class="cls-1" cx="111.69" cy="114.09" r="4.8"/><path class="cls-1" d="M97.8,118.3a3.9,3.9,0,1,0,3.9,3.9A3.84,3.84,0,0,0,97.8,118.3Z"/><path class="cls-1" d="M84.2,123a3.3,3.3,0,1,0,3.3,3.3A3.2,3.2,0,0,0,84.2,123Z"/><path class="cls-1" d="M71.5,124.9a2.9,2.9,0,1,0,2.9,2.9A3,3,0,0,0,71.5,124.9Z"/><path class="cls-1" d="M58.7,123a3.3,3.3,0,1,0,3.3,3.3A3.33,3.33,0,0,0,58.7,123Z"/><path class="cls-1" d="M45.1,118.2A3.85,3.85,0,1,0,49,122,4.1,4.1,0,0,0,45.1,118.2Z"/><path class="cls-1" d="M31.2,109.3a4.91,4.91,0,0,0-4.2,2.4,4.6,4.6,0,0,0,0,4.8,4.82,4.82,0,1,0,4.2-7.2Z"/><path class="cls-1" d="M18.9,96a5.6,5.6,0,1,0,5.6,5.6A5.66,5.66,0,0,0,18.9,96Z"/><path class="cls-1" d="M10.6,79A6.5,6.5,0,1,0,17,85.5,6.6,6.6,0,0,0,10.6,79Z"/><path class="cls-1" d="M7.6,57.8a7.6,7.6,0,1,0,7.6,7.6A7.6,7.6,0,0,0,7.6,57.8Z"/><path class="cls-1" d="M10.6,38.6a6.71,6.71,0,0,0-5.8,3.2A6.54,6.54,0,1,0,17,45.1,6.6,6.6,0,0,0,10.6,38.6Z"/><path class="cls-1" d="M18.9,23.5A5.54,5.54,0,0,0,14,26.3a5.6,5.6,0,0,0,0,5.6,5.75,5.75,0,0,0,4.9,2.8,5.64,5.64,0,0,0,5.5-5.6A5.78,5.78,0,0,0,18.9,23.5Z"/><path class="cls-1" d="M31.2,11.7A4.8,4.8,0,1,0,36,16.5,4.8,4.8,0,0,0,31.2,11.7Z"/><path class="cls-1" d="M45.1,4.6A3.9,3.9,0,1,0,49,8.5,4,4,0,0,0,45.1,4.6Z"/><path class="cls-1" d="M58.7,1a3.37,3.37,0,0,0-3.4,3.4,3.37,3.37,0,0,0,3.4,3.4A3.33,3.33,0,0,0,62,4.5,3.44,3.44,0,0,0,58.7,1Z"/><path class="cls-1" d="M71.4,0a2.9,2.9,0,1,0,2.9,2.9A2.9,2.9,0,0,0,71.4,0Z"/><path class="cls-1" d="M84.2,1a3.33,3.33,0,0,0-3.3,3.3,3.3,3.3,0,1,0,6.6,0A3.2,3.2,0,0,0,84.2,1Z"/><path class="cls-1" d="M97.8,4.6a3.85,3.85,0,0,0-3.4,5.8,3.93,3.93,0,0,0,7.3-2,3.76,3.76,0,0,0-3.9-3.8Z"/><path class="cls-1" d="M111.7,11.8a4.8,4.8,0,1,0,4.8,4.8A4.8,4.8,0,0,0,111.7,11.8Z"/><path class="cls-1" d="M124,23.5a5.6,5.6,0,1,0,5.6,5.6A5.59,5.59,0,0,0,124,23.5Z"/><path class="cls-1" d="M132.3,38.6a6.71,6.71,0,0,0-5.8,3.2,6.54,6.54,0,1,0,12.2,3.3A6.4,6.4,0,0,0,132.3,38.6Z"/><path class="cls-1" d="M102.3,75.3a2.9,2.9,0,0,0-2.6,1.4,3.19,3.19,0,0,0,0,3,2.71,2.71,0,0,0,2.6,1.4,3,3,0,0,0,2.8-2.9,2.88,2.88,0,0,0-2.8-2.9Z"/><path class="cls-1" d="M95,86.2a2.9,2.9,0,0,0-2.6,1.4,3.19,3.19,0,0,0,0,3A2.81,2.81,0,0,0,95,92a2.9,2.9,0,0,0,0-5.8Z"/><path class="cls-1" d="M84.1,93.2a3.31,3.31,0,0,0-2.8,1.6,3.07,3.07,0,0,0,0,3.2,3.19,3.19,0,0,0,2.8,1.6,3.2,3.2,0,1,0,0-6.4Z"/><path class="cls-1" d="M71.3,95.1a4.3,4.3,0,1,0,4.3,4.3A4.4,4.4,0,0,0,71.3,95.1Z"/><path class="cls-1" d="M58.4,92.5a4.9,4.9,0,1,0,4.9,4.9A4.91,4.91,0,0,0,58.4,92.5Z"/><path class="cls-1" d="M46.8,84.3a5.4,5.4,0,1,0,5.4,5.4A5.38,5.38,0,0,0,46.8,84.3Z"/><path class="cls-1" d="M39.1,73.3a4.5,4.5,0,1,0,4.5,4.5A4.48,4.48,0,0,0,39.1,73.3Z"/><path class="cls-1" d="M37.3,61.3a3.5,3.5,0,1,0,3.5,3.5A3.42,3.42,0,0,0,37.3,61.3Z"/><path class="cls-1" d="M40.4,49.5a2.9,2.9,0,1,0,2.9,2.9,2.84,2.84,0,0,0-2.9-2.9Z"/><path class="cls-1" d="M47.8,38.7a2.9,2.9,0,0,0-2.6,1.4,3.19,3.19,0,0,0,0,3,2.81,2.81,0,0,0,2.6,1.4,2.9,2.9,0,0,0,2.9-2.9,3,3,0,0,0-2.9-2.9Z"/><path class="cls-1" d="M58.6,31.1a3.2,3.2,0,1,0,3.2,3.2,3.22,3.22,0,0,0-3.2-3.2Z"/><circle class="cls-1" cx="71.48" cy="31.25" r="4.3"/><path class="cls-1" d="M84.3,28.4a4.9,4.9,0,1,0,4.9,4.9A4.91,4.91,0,0,0,84.3,28.4Z"/><path class="cls-1" d="M95.9,35.6a5.4,5.4,0,1,0,5.4,5.4A5.38,5.38,0,0,0,95.9,35.6Z"/><path class="cls-1" d="M103.6,48.3a4.5,4.5,0,1,0,4.5,4.5A4.48,4.48,0,0,0,103.6,48.3Z"/><circle class="cls-1" cx="91.8" cy="70.9" r="2.7"/><path class="cls-1" d="M86.5,76.6a4,4,0,1,0,4,4A3.89,3.89,0,0,0,86.5,76.6Z"/><path class="cls-1" d="M76.2,82a4.2,4.2,0,1,0,4.2,4.2A4.23,4.23,0,0,0,76.2,82Z"/><path class="cls-1" d="M64,81.7a3.58,3.58,0,0,0-3.2,1.9,3.52,3.52,0,0,0,0,3.7,3.68,3.68,0,0,0,6.9-1.8A3.65,3.65,0,0,0,64,81.7Z"/><path class="cls-1" d="M55,75.6a2.7,2.7,0,1,0,2.7,2.7A2.69,2.69,0,0,0,55,75.6Z"/><path class="cls-1" d="M51.4,67.7a2,2,0,1,0,2,2A2,2,0,0,0,51.4,67.7Z"/><path class="cls-1" d="M51.2,57.4a2.7,2.7,0,1,0,2.7,2.7,2.69,2.69,0,0,0-2.7-2.7Z"/><path class="cls-1" d="M56.5,46.3a4,4,0,1,0,4,4A4,4,0,0,0,56.5,46.3Z"/><path class="cls-1" d="M66.8,40.5A4.2,4.2,0,1,0,71,44.7,4.23,4.23,0,0,0,66.8,40.5Z"/><path class="cls-1" d="M79,41.8a3.86,3.86,0,0,0-3.3,1.8,3.7,3.7,0,0,0,0,3.8A3.56,3.56,0,0,0,79,49.2a3.7,3.7,0,0,0,0-7.4Z"/><path class="cls-1" d="M87.9,49.8a2.7,2.7,0,1,0,2.7,2.7,2.57,2.57,0,0,0-2.7-2.7Z"/><path class="cls-1" d="M91.7,59.3a2,2,0,1,0,2,2A2,2,0,0,0,91.7,59.3Z"/><path class="cls-1" d="M105.4,62.4a3.5,3.5,0,1,0,3.5,3.5,3.54,3.54,0,0,0-3.5-3.5Z"/><path class="cls-1" d="M119.9,66.7a3.7,3.7,0,1,0,3.7,3.7A3.69,3.69,0,0,0,119.9,66.7Z"/><path class="cls-1" d="M116.2,79.8a3.5,3.5,0,1,0,3.5,3.5,3.48,3.48,0,0,0-3.5-3.5Z"/><path class="cls-1" d="M109.9,90.8a3,3,0,1,0,2.9,3,3.06,3.06,0,0,0-2.9-3Z"/><path class="cls-1" d="M102.3,99a2.77,2.77,0,0,0-2.3,1.3,2.44,2.44,0,0,0,0,2.6,2.65,2.65,0,0,0,2.3,1.3,2.58,2.58,0,0,0,2.6-2.6,2.65,2.65,0,0,0-2.6-2.6Z"/><path class="cls-1" d="M94.3,105a2.2,2.2,0,1,0,2.2,2.2,2.22,2.22,0,0,0-2.2-2.2Z"/><path class="cls-1" d="M85.2,108.4a2.6,2.6,0,1,0,2.6,2.6,2.65,2.65,0,0,0-2.6-2.6Z"/><path class="cls-1" d="M74.5,110.1a3,3,0,1,0,3,3A3.07,3.07,0,0,0,74.5,110.1Z"/><path class="cls-1" d="M62.3,108.9a3.8,3.8,0,1,0,3.8,3.8,3.8,3.8,0,0,0-3.8-3.8Z"/><path class="cls-1" d="M49.4,104.3a4.5,4.5,0,1,0,4.5,4.5A4.42,4.42,0,0,0,49.4,104.3Z"/><path class="cls-1" d="M38.1,95.7a5.58,5.58,0,0,0-4.7,2.6,5.24,5.24,0,0,0,0,5.4,5.16,5.16,0,0,0,4.7,2.6,5.31,5.31,0,0,0,5.2-5.3A5.38,5.38,0,0,0,38.1,95.7Z"/><path class="cls-1" d="M28.6,82.9a5.8,5.8,0,1,0,5.8,5.8A5.74,5.74,0,0,0,28.6,82.9Z"/><circle class="cls-1" cx="23.24" cy="74.05" r="4.6"/><circle class="cls-1" cx="22.96" cy="60.22" r="3.7"/><path class="cls-1" d="M26.7,43.8a3.5,3.5,0,1,0,3.5,3.5,3.54,3.54,0,0,0-3.5-3.5Z"/><path class="cls-1" d="M33,33.9a2.79,2.79,0,0,0-2.6,1.5,3.19,3.19,0,0,0,0,3A3.11,3.11,0,0,0,33,39.9a3,3,0,0,0,2.9-3A2.93,2.93,0,0,0,33,33.9Z"/><path class="cls-1" d="M40.6,26.5a2.6,2.6,0,0,0,0,5.2,2.52,2.52,0,0,0,2.6-2.6A2.65,2.65,0,0,0,40.6,26.5Z"/><path class="cls-1" d="M48.6,21.3a2.2,2.2,0,1,0,2.2,2.2A2.16,2.16,0,0,0,48.6,21.3Z"/><path class="cls-1" d="M57.7,17.2a2.6,2.6,0,1,0,2.6,2.6A2.58,2.58,0,0,0,57.7,17.2Z"/><path class="cls-1" d="M68.4,14.6a2.79,2.79,0,0,0-2.6,1.5,3.19,3.19,0,0,0,0,3,3.11,3.11,0,0,0,2.6,1.5,3,3,0,0,0,2.9-3A3.06,3.06,0,0,0,68.4,14.6Z"/><path class="cls-1" d="M80.6,14.1a3.85,3.85,0,1,0,3.8,3.8A3.8,3.8,0,0,0,80.6,14.1Z"/><path class="cls-1" d="M93.1,17a4.6,4.6,0,1,0,4.6,4.6A4.65,4.65,0,0,0,93.1,17Z"/><path class="cls-1" d="M104.9,24.2a5.27,5.27,0,0,0-5.3,5.3,5.34,5.34,0,0,0,5.3,5.3,5.27,5.27,0,0,0,5.3-5.3A5.34,5.34,0,0,0,104.9,24.2Z"/><path class="cls-1" d="M114.3,36.2a6,6,0,0,0-5.1,2.9,5.51,5.51,0,0,0,0,5.8,6,6,0,0,0,5.1,2.9A5.78,5.78,0,0,0,120,42,6,6,0,0,0,114.3,36.2Z"/><path class="cls-1" d="M119.6,52.1a4.61,4.61,0,0,0-4,2.2,4.71,4.71,0,0,0,0,4.6,4.41,4.41,0,0,0,4,2.2,4.5,4.5,0,0,0,0-9Z"/><path class="cls-1" d="M142.9,65.3a7.6,7.6,0,1,1-7.6-7.6A7.73,7.73,0,0,1,142.9,65.3Z"/><path class="cls-1" d="M517.1,77c0-7.2-4.1-11-10.5-13.6-5-2-9.4-3.7-12.8-5.1s-6.2-3.6-6.2-6.1c0-3.4,4.2-5.4,9.8-5.4,6.6,0,11.8.9,16.7,1.4h.2a1.29,1.29,0,0,0,1.3-1.4V41.2a1.5,1.5,0,0,0-1.4-1.4,75.9,75.9,0,0,0-16.4-2c-14,0-20.7,6-20.7,14.4A13.45,13.45,0,0,0,486,65.4c6.6,2.7,20.1,5.9,20.1,11.5,0,4.4-2,6.8-8.8,6.8a131.43,131.43,0,0,1-17.1-1.4H480a1.37,1.37,0,0,0-1.4,1.4v5.4a1.6,1.6,0,0,0,1.4,1.5,84.34,84.34,0,0,0,17.1,2C512.4,92.8,517.1,84.6,517.1,77Z"/><path class="cls-1" d="M369.1,47.2H354V90.6a1.54,1.54,0,0,1-1.5,1.5H345a1.54,1.54,0,0,1-1.5-1.5V47.2H328.4a1.39,1.39,0,0,1-1.5-1.4v-6a1.45,1.45,0,0,1,1.5-1.4h40.7a1.45,1.45,0,0,1,1.5,1.4v6a1.39,1.39,0,0,1-1.5,1.4Z"/><path class="cls-1" d="M320.3,71.4V39.9a1.45,1.45,0,0,0-1.5-1.4h-7.5a1.45,1.45,0,0,0-1.5,1.4V71.3c0,8.6-4,12.7-12.1,12.7s-12.1-4.1-12.1-12.7V39.9a1.45,1.45,0,0,0-1.5-1.4h-7.5a1.45,1.45,0,0,0-1.5,1.4V71.3c0,16.1,10.5,21.4,22.6,21.4S320.3,87.5,320.3,71.4Z"/><path class="cls-1" d="M388,68.8h24.2a1.54,1.54,0,0,0,1.5-1.5V61.8a1.54,1.54,0,0,0-1.5-1.5H388V53.4c0-6.3.2-6.5,6-6.5h19.1a1.54,1.54,0,0,0,1.5-1.5V40.6c0-1.1-.4-1.4-1.5-1.6a96.1,96.1,0,0,0-16.3-1.1c-12.5,0-19.2-.1-19.2,15.5V77.3c0,15.6,6.7,15.5,19.2,15.5a96.1,96.1,0,0,0,16.3-1.1c1.1-.1,1.5-.5,1.5-1.6V85.3a1.54,1.54,0,0,0-1.5-1.5H394c-5.7,0-6-.2-6-6.5V68.8Z"/><path class="cls-1" d="M238.7,68.8h24.2a1.54,1.54,0,0,0,1.5-1.5V61.8a1.54,1.54,0,0,0-1.5-1.5H238.7V53.4c0-6.3.2-6.5,6-6.5h19.1a1.54,1.54,0,0,0,1.5-1.5V40.6c0-1.1-.4-1.4-1.5-1.6a96.1,96.1,0,0,0-16.3-1.1c-12.5,0-19.2-.1-19.2,15.5V77.3c0,15.6,6.7,15.5,19.2,15.5a96.1,96.1,0,0,0,16.3-1.1c1.1-.1,1.5-.5,1.5-1.6V85.3a1.54,1.54,0,0,0-1.5-1.5H244.7c-5.7,0-6-.2-6-6.5V68.8Z"/><path class="cls-1" d="M470.8,90.6,459,70.4c6.2-2.4,10.2-6.8,10.2-14.8V55c0-12.9-10.7-17.1-22.4-17.1a155.12,155.12,0,0,0-17.9,1c-1.5.2-2.4.8-2.4,2.3V90.7a1.54,1.54,0,0,0,1.5,1.5h7.6a1.45,1.45,0,0,0,1.4-1.5V72c1.7.1,7.8.3,9.8.3h1.7l10.9,18.3c.4.7.7,1.5,1.5,1.5h9.2a.84.84,0,0,0,.9-.9A1.42,1.42,0,0,0,470.8,90.6Zm-12.1-35c0,6.6-4.2,8.1-12,8.1-1.3,0-8.6-.2-9.8-.2V47.2c1.3-.2,8.2-.3,9.8-.3,7.6,0,12,2.4,12,8.1Z"/><path class="cls-1" d="M220.1,90.6,208.2,70.4c6.2-2.4,10.2-6.8,10.2-14.8V55c0-12.9-10.7-17.1-22.4-17.1a155.12,155.12,0,0,0-17.9,1c-1.5.2-2.4.8-2.4,2.3V90.7a1.54,1.54,0,0,0,1.5,1.5h7.6a1.45,1.45,0,0,0,1.4-1.5V72c1.7.1,7.8.3,9.8.3h1.7l10.9,18.3c.4.7.7,1.5,1.5,1.5h9.2a.84.84,0,0,0,.9-.9A1.27,1.27,0,0,0,220.1,90.6ZM208,55.6c0,6.6-4.2,8.1-11.9,8.1-1.3,0-8.6-.2-9.8-.2V47.2c1.3-.2,8.2-.3,9.8-.3,7.6,0,11.9,2.4,11.9,8.1Z"/></g></g></svg>