<svg width="32" height="32" viewBox="0 0 32 32" fill="none" xmlns="http://www.w3.org/2000/svg">
<path d="M19.2105 9.44154C19.0081 7.85225 17.5805 6.62069 15.8495 6.62069C13.9797 6.62069 12.4639 8.0577 12.4639 9.83033C12.4639 9.91524 12.4674 9.99937 12.4743 10.0826C12.3244 10.0574 12.1701 10.0443 12.0125 10.0443C10.5582 10.0443 9.37927 11.162 9.37927 12.5407C9.37927 13.3779 9.81398 14.1188 10.4811 14.5717C10.0721 15.1022 9.83068 15.7562 9.83068 16.4636C9.83068 18.2362 11.3465 19.6732 13.2163 19.6732C13.6815 19.6732 14.1249 19.5843 14.5284 19.4233C14.8513 20.1424 15.2476 21.2186 15.2476 22.1697C15.2476 23.2774 14.8892 24.3851 14.6671 24.965C14.5924 25.1602 14.7352 25.3793 14.9441 25.3793H17.0022C17.2236 25.3793 17.3727 25.1317 17.2872 24.9275C17.065 24.3965 16.7523 23.426 16.7523 22.1697C16.7523 20.9593 17.1876 19.8768 17.5175 19.2301C18.0211 19.5117 18.6082 19.6732 19.2351 19.6732C21.1049 19.6732 22.6207 18.2362 22.6207 16.4636C22.6207 15.4518 22.1268 14.5493 21.3552 13.9611C22.114 13.523 22.6207 12.7313 22.6207 11.8274C22.6207 10.4487 21.4417 9.33106 19.9874 9.33106C19.717 9.33106 19.456 9.36971 19.2105 9.44154Z" fill="white"/>
</svg>
